<svg xmlns="http://www.w3.org/2000/svg" xmlns:xlink="http://www.w3.org/1999/xlink" fill="none" version="1.1" width="80" height="92.00000762939453" viewBox="0 0 80 92.00000762939453"><defs><linearGradient x1="0" y1="0.7608695030212402" x2="1.0437500476837158" y2="0.7554346919059753" id="master_svg0_717_0111"><stop offset="0%" stop-color="#F92855" stop-opacity="1"/><stop offset="99.99993443489075%" stop-color="#2DC08E" stop-opacity="0.8999999761581421"/></linearGradient></defs><g><g style="mix-blend-mode:passthrough"><g style="mix-blend-mode:passthrough"><path d="M50.703739999999996,44.66665190734863L45.51852,44.66665190734863C44.12758,44.66665190734863,43,45.56066190734863,43,46.66348190734863L43,65.33650190734863C43,66.43930190734864,44.12758,67.33330190734864,45.51852,67.33330190734864L56.4815,67.33330190734864C57.8724,67.33330190734864,59,66.43930190734864,59,65.33650190734863L59,46.66348190734863C59,45.56066190734863,57.8724,44.66665190734863,56.4815,44.66665190734863L51.29633,44.66665190734863L51.29633,39.23492290734863C51.29633,39.105179907348635,51.16368,39.00000190734863,51.00004,39.00000190734863C50.8364,39.00000190734863,50.703739999999996,39.105179907348635,50.703739999999996,39.23492290734863L50.703739999999996,44.66665190734863ZM51.29633,67.33340190734863L51.29633,72.76510190734862C51.29633,72.89490190734864,51.16368,73.00000190734863,51.00004,73.00000190734863C50.8364,73.00000190734863,50.703739999999996,72.89490190734864,50.703739999999996,72.76510190734862L50.703739999999996,67.33340190734863L51.29633,67.33340190734863Z" fill-rule="evenodd" fill="#2DC08E" fill-opacity="1"/></g><g style="mix-blend-mode:passthrough"><path d="M27.70374,51.66665190734863L22.51852,51.66665190734863C21.127580000000002,51.66665190734863,20,52.56066190734863,20,53.66348190734863L20,72.33650190734863C20,73.43930190734864,21.127580000000002,74.33330190734864,22.51852,74.33330190734864L33.4815,74.33330190734864C34.8724,74.33330190734864,36,73.43930190734864,36,72.33650190734863L36,53.66348190734863C36,52.56066190734863,34.8724,51.66665190734863,33.4815,51.66665190734863L28.296329999999998,51.66665190734863L28.296329999999998,46.23492290734863C28.296329999999998,46.105179907348635,28.16368,46.00000190734863,28.00004,46.00000190734863C27.8364,46.00000190734863,27.70374,46.105179907348635,27.70374,46.23492290734863L27.70374,51.66665190734863ZM28.296329999999998,74.33340190734863L28.296329999999998,79.76510190734862C28.296329999999998,79.89490190734864,28.16368,80.00000190734863,28.00004,80.00000190734863C27.8364,80.00000190734863,27.70374,79.89490190734864,27.70374,79.76510190734862L27.70374,74.33340190734863L28.296329999999998,74.33340190734863Z" fill-rule="evenodd" fill="#F92855" fill-opacity="1"/></g></g><g style="mix-blend-mode:passthrough"><path d="M17.7274,90.65410190734863C17.5901,90.65410190734863,17.4517,90.64360190734864,17.3121,90.62250190734864C9.93219,89.50950190734864,4.80718,86.71360190734863,2.07787,82.30840190734864C-1.1223,77.14370190734863,0.241764,71.63140190734863,0.568291,70.51370190734863C5.37624,46.64700190734863,15.0785,38.494501907348635,21.5025,33.095701907348634C22.9683,31.86330190734863,24.2342,30.79950190734863,25.1676,29.767201907348632C25.4105,29.498401907348633,25.6051,29.21540190734863,25.7556,28.920201907348634C24.7465,29.22310190734863,24.1971,29.432601907348634,24.1703,29.442901907348634C22.908,29.936801907348634,21.4777,29.324701907348633,20.9761,28.076001907348633C20.4756,26.827201907348634,21.0897,25.414601907348633,22.352,24.917201907348634C22.5042,24.857101907348632,23.5312,24.460701907348632,25.3073,23.961601907348633C24.087,21.442501907348632,21.7693,18.79490190734863,19.7125,16.643101907348633L19.2819,16.190201907348634C16.2438,12.977601907348634,14.6017,4.801591907348633,14.3036,3.194711907348633C14.1306,2.2621219073486327,14.4636,1.3079619073486328,15.1814,0.6796589073486328C15.8995,0.05121800734863281,16.8976,-0.1596740926513672,17.8125,0.12375090734863281C22.7731,1.662741907348633,24.2638,1.812551907348633,27.2321,2.110981907348633C28.7357,2.261961907348633,29.83,3.590291907348633,29.6762,5.076611907348632C29.5236,6.562941907348633,28.182,7.6478619073486325,26.6784,7.494541907348633C24.4992,7.275691907348633,22.9517,7.098961907348633,20.724,6.566461907348633C21.4493,9.090881907348633,22.3803,11.542701907348633,23.2771,12.491901907348632L23.6876,12.923701907348633C25.3757,14.690001907348632,28.9691,18.450001907348632,30.7016,22.729901907348633C35.0392,21.943301907348634,40.8791,21.33590190734863,47.7817,21.724901907348634C48.2004,20.738601907348635,48.8054,19.795301907348634,49.5907,18.913501907348632C49.7137,18.775401907348634,49.8498,18.650201907348634,49.9988,18.539001907348634C53.6142,15.850801907348632,57.5491,12.857001907348632,59.7803,11.075801907348632C58.1028,11.250201907348632,56.1034,11.027801907348632,53.9124,9.708821907348632C53.2439,9.306221907348633,52.5992,8.894261907348632,51.9662,8.489331907348634C48.4668,6.251641907348633,46.497,5.1210919073486325,43.4234,5.948521907348633C41.9647,6.340581907348633,40.4622,5.489751907348633,40.0659,4.047891907348633C39.6695,2.606031907348633,40.5296,1.1185319073486328,41.9871,0.7264729073486328C47.5602,-0.7738250926513672,51.4796,1.7327019073486327,54.9364,3.943401907348633C55.5284,4.321751907348633,56.1318,4.707971907348633,56.7564,5.0848219073486325C58.3843,6.065561907348632,59.4858,5.761281907348633,61.2899,5.138661907348633C62.3511,4.772341907348633,63.5567,4.356861907348633,64.8675,4.534761907348633C66.3321,4.732541907348633,67.4406,5.569331907348633,67.9103,6.830961907348633C68.7444,9.073331907348633,67.1035,11.553301907348633,65.5797,13.237401907348632C64.6729,14.239401907348633,60.0845,17.760601907348633,56.4519,20.495701907348632C56.9477,20.336901907348633,57.4767,20.251101907348634,58.026,20.251101907348634C59.4281,20.251101907348634,60.6982,20.81020190734863,61.621,21.715301907348632C65.4948,20.690101907348634,67.87,17.95630190734863,67.9033,17.917501907348633C68.78,16.888801907348633,70.3322,16.757701907348633,71.3721,17.62260190734863C72.412,18.488601907348635,72.5457,20.025301907348634,71.6702,21.05400190734863C71.5221,21.228601907348633,69.5063,23.549201907348632,66.0787,25.233001907348633C69.5399,26.882201907348634,72.9993,29.68200190734863,74.1841,34.41450190734863C74.5106,35.72060190734863,73.7062,37.040701907348634,72.3859,37.36380190734863C72.1871,37.411701907348636,71.9884,37.43510190734863,71.792,37.43510190734863C70.687,37.43510190734863,69.6826,36.69320190734863,69.4046,35.584801907348634C68.4378,31.72170190734863,64.8144,29.74310190734863,61.7619,28.745601907348632C60.8298,29.734901907348632,59.5009,30.353501907348633,58.026,30.353501907348633C55.8642,30.353501907348633,54.0162,29.024501907348633,53.2713,27.147401907348634C53.2022,27.138001907348634,53.1331,27.12870190734863,53.0642,27.11950190734863C54.232,29.59360190734863,57.0851,31.92590190734863,58.1868,32.66500190734863C58.3157,32.751601907348636,58.4423,32.85230190734863,58.5547,32.95990190734863C66.5865,40.61510190734863,72.4887,48.81330190734863,76.0971,57.32870190734863C76.6815,58.70740190734863,76.0249,60.29320190734863,74.6313,60.87020190734863C74.2976,61.01000190734863,73.9388,61.08200190734863,73.576,61.08200190734863C72.5065,61.08200190734863,71.4914,60.45820190734863,71.0525,59.421301907348635C67.7577,51.64550190734863,62.331,44.10740190734863,54.9203,37.011601907348634C53.6073,36.100901907348636,48.0984,31.991701907348634,47.2065,26.58300190734863C40.9421,26.267901907348634,35.6187,26.827901907348632,31.6725,27.533601907348633C31.6197,29.527001907348634,30.9225,31.517201907348632,29.2456,33.373101907348634C28.0614,34.68270190734863,26.5968,35.91500190734863,25.0446,37.218801907348634C21.9414,39.826901907348635,18.2648,42.91690190734863,14.8104,48.11920190734863C11.356,53.32150190734863,8.12389,60.63610190734863,5.9098,71.69340190734863C5.88733,71.80350190734863,5.85893,71.91230190734863,5.82344,72.01880190734863C5.81634,72.04100190734863,4.57886,76.04130190734864,6.77344,79.52890190734863C8.6332,82.48280190734863,12.4557,84.41390190734863,18.1367,85.27050190734863C19.6297,85.49530190734863,20.6566,86.87620190734863,20.4295,88.35320190734863C20.2213,89.69440190734863,19.0559,90.65410190734863,17.7274,90.65410190734863ZM35.1195,7.031011907348633C33.3502,7.031011907348633,31.9158,5.6120819073486325,31.9158,3.861721907348633C31.9158,2.111391907348633,33.3502,0.6924529073486329,35.1195,0.6924529073486329C36.8889,0.6924529073486329,38.3233,2.111391907348633,38.3233,3.861721907348633C38.3233,5.6120819073486325,36.8889,7.031011907348633,35.1195,7.031011907348633ZM57.6848,23.189201907348632L58.414,24.475401907348633C58.8984,24.362301907348634,59.3923,24.34350190734863,59.8644,24.420301907348634C60.2191,24.50050190734863,60.5087,24.718201907348632,60.6663,25.022901907348633C60.8636,25.339401907348634,60.8993,25.734601907348633,60.7646,26.109401907348634C60.5988,26.517601907348634,60.2972,26.874901907348633,59.9085,27.123501907348633L60.31,27.831601907348634L59.7886,28.129401907348633L59.3994,27.443001907348634C58.9257,27.717501907348634,58.399,27.883001907348632,57.8664,27.924701907348634L57.3744,27.05690190734863C57.6378,27.074101907348634,57.9071,27.04800190734863,58.1704,26.979701907348634C58.4501,26.925101907348633,58.7239,26.832301907348633,58.9829,26.704401907348633L58.2801,25.464701907348633C57.8047,25.587701907348634,57.3167,25.606501907348633,56.8549,25.519701907348633C56.4913,25.426301907348634,56.196,25.19710190734863,56.0328,24.881401907348632C55.8433,24.556101907348634,55.8127,24.157201907348632,55.9484,23.778901907348633C56.088,23.373001907348634,56.3763,23.014901907348634,56.7584,22.772601907348633L56.4166,22.16990190734863L56.938,21.872101907348632L57.2727,22.46250190734863C57.6615,22.237601907348633,58.0888,22.090101907348632,58.5254,22.030101907348634L59.0042,22.874601907348634C58.5548,22.882801907348632,58.103,22.990601907348633,57.6848,23.189201907348632ZM56.9319,24.29620190734863Q57.1278,24.641701907348633,57.7863,24.585601907348632L57.1695,23.497801907348634Q56.6982,23.884001907348633,56.9319,24.29620190734863ZM58.9077,25.346201907348632L59.4981,26.387501907348632L59.499,26.389101907348632Q59.9965,26.004501907348633,59.7628,25.592301907348634Q59.573,25.257601907348633,58.9077,25.346201907348632ZM73.2212,66.50650190734864C73.2212,66.93700190734863,73.3079,67.34740190734863,73.4651,67.72160190734863C74.3982,68.25650190734864,75.2613,68.90510190734864,76.0346,69.65250190734864C76.1625,69.66790190734864,76.2928,69.67580190734863,76.4249,69.67580190734863C78.1943,69.67580190734863,79.6286,68.25690190734863,79.6286,66.50650190734864C79.6286,64.75620190734864,78.1943,63.337201907348636,76.4249,63.337201907348636C74.6555,63.337201907348636,73.2212,64.75620190734864,73.2212,66.50650190734864ZM78.2104,72.41770190734863C79.0563,73.85830190734863,79.6165,75.44840190734864,79.8606,77.10110190734864C79.9531,76.40570190734863,80,75.69060190734864,80,74.95750190734863C80,73.79180190734863,79.2551,72.79850190734864,78.2104,72.41770190734863ZM78.6988,79.57090190734863C78.6988,82.11000190734863,77.3186,83.56830190734863,75.2874,83.56830190734863C73.2561,83.56830190734863,71.8759,82.11000190734863,71.8759,79.57090190734863C71.8759,77.03190190734863,73.2561,75.65170190734864,75.2874,75.65170190734864C77.3186,75.65170190734864,78.6988,77.04490190734863,78.6988,79.57090190734863ZM59.6497,83.36000190734863L57.8594,83.36000190734863L57.8594,75.86000190734863L60.4798,75.86000190734863C62.1074,75.86000190734863,63.4583,76.45240190734863,63.4583,78.30140190734863C63.4583,80.08200190734863,62.0977,80.86000190734863,60.5189,80.86000190734863L59.6497,80.86000190734863L59.6497,83.36000190734863ZM70.9533,83.36000190734863L68.9546,83.36000190734863L67.5841,80.65170190734864L66.7247,80.65170190734864L66.7247,83.36000190734863L64.9344,83.36000190734863L64.9344,75.86000190734863L67.6622,75.86000190734863C69.254,75.86000190734863,70.5724,76.41010190734863,70.5724,78.19400190734864C70.5724,79.26170190734864,70.0646,79.96480190734863,69.2931,80.32290190734864L70.9533,83.36000190734863ZM73.7053,79.57090190734863C73.7053,81.07160190734864,74.3076,82.02860190734863,75.2874,82.02860190734863C76.2672,82.02860190734863,76.8759,81.07160190734864,76.8759,79.57090190734863C76.8759,78.07030190734864,76.2672,77.18490190734863,75.2874,77.18490190734863C74.3076,77.18490190734863,73.7053,78.07030190734864,73.7053,79.57090190734863ZM59.6497,77.28250190734863L59.6497,79.45050190734864L60.4277,79.45050190734864C61.3001,79.45050190734864,61.7201,79.03710190734863,61.7201,78.30140190734863C61.7201,77.54290190734864,61.2383,77.28250190734863,60.3789,77.28250190734863L59.6497,77.28250190734863ZM66.7247,77.28250190734863L66.7247,79.24220190734863L67.5223,79.24220190734863C68.3751,79.24220190734863,68.8341,78.88080190734863,68.8341,78.19400190734864C68.8341,77.50710190734863,68.3751,77.28250190734863,67.5223,77.28250190734863L66.7247,77.28250190734863ZM33.4183,86.37420190734863C41.4646,86.48920190734863,49.4866,86.05750190734864,55.7547,85.52250190734863C56.9659,87.61070190734863,58.7347,89.32050190734863,60.8629,90.46020190734863C54.3074,91.16120190734863,44.9915,91.80450190734864,35.9465,91.80450190734864C35.0734,91.80450190734864,34.2038,91.79870190734863,33.3378,91.78580190734863C31.827,91.76360190734863,30.6203,90.53590190734863,30.6428,89.04020190734863C30.6653,87.54570190734863,31.9158,86.32970190734864,33.4183,86.37420190734863ZM25.2731,92.00000190734863C23.5037,92.00000190734863,22.0693,90.58110190734864,22.0693,88.83070190734863C22.0693,87.08040190734863,23.5037,85.66150190734864,25.2731,85.66150190734864C27.0424,85.66150190734864,28.4768,87.08040190734863,28.4768,88.83070190734863C28.4768,90.58110190734864,27.0424,92.00000190734863,25.2731,92.00000190734863Z" fill-rule="evenodd" fill="url(#master_svg0_717_0111)" fill-opacity="1"/></g></g></svg>